HIERARCHY
ROOT Hips
{
	OFFSET 0.000000 0.000000 0.000000
	CHANNELS 6 Xposition Yposition Zposition Xrotation Yrotation Zrotation
	JOINT LeftUpLeg_virtual
	{
		OFFSET 0.000000 0.000000 0.000000
		CHANNELS 3 Xrotation Yrotation Zrotation
		JOINT LeftUpLeg
		{
			OFFSET 13.026900 -6.336304 -1.092800
			CHANNELS 3 Xrotation Yrotation Zrotation
			JOINT LeftLeg
			{
				OFFSET 0.524474 -46.096886 9.782700
				CHANNELS 3 Xrotation Yrotation Zrotation
				JOINT LeftFoot
				{
					OFFSET -0.524474 -53.427422 -12.948200
					CHANNELS 3 Xrotation Yrotation Zrotation
					JOINT LeftToeBase
					{
						OFFSET 0.192200 -14.009700 16.364100
						CHANNELS 3 Xrotation Yrotation Zrotation
						JOINT LeftToe_End
						{
							OFFSET -1.784700 -0.561700 9.474800
							CHANNELS 3 Xrotation Yrotation Zrotation
							End Site
							{
								OFFSET 0 0 0
							}
						}
					}
				}
			}
		}
	}
	JOINT RightUpLeg_virtual
	{
		OFFSET 0.000000 0.000000 0.000000
		CHANNELS 3 Xrotation Yrotation Zrotation
		JOINT RightUpLeg
		{
			OFFSET -12.883000 -6.336304 -1.092800
			CHANNELS 3 Xrotation Yrotation Zrotation
			JOINT RightLeg
			{
				OFFSET -0.524587 -46.096825 9.782800
				CHANNELS 3 Xrotation Yrotation Zrotation
				JOINT RightFoot
				{
					OFFSET 0.524587 -53.427383 -12.948300
					CHANNELS 3 Xrotation Yrotation Zrotation
					JOINT RightToeBase
					{
						OFFSET -0.192200 -14.009700 16.364100
						CHANNELS 3 Xrotation Yrotation Zrotation
						JOINT RightToe_End
						{
							OFFSET 1.784700 -0.561700 9.474800
							CHANNELS 3 Xrotation Yrotation Zrotation
							End Site
							{
								OFFSET 0 0 0
							}
						}
					}
				}
			}
		}
	}
	JOINT Spine_virtual
	{
		OFFSET 0.000000 0.000000 0.000000
		CHANNELS 3 Xrotation Yrotation Zrotation
		JOINT Spine
		{
			OFFSET 0.072000 7.257294 -0.789700
			CHANNELS 3 Xrotation Yrotation Zrotation
			JOINT Spine1
			{
				OFFSET 0.000000 12.508769 -0.658067
				CHANNELS 3 Xrotation Yrotation Zrotation
				JOINT Spine1_split
				{
					OFFSET 0.000000 12.508769 -0.658067
					CHANNELS 3 Xrotation Yrotation Zrotation
					JOINT Spine2
					{
						OFFSET 0.000000 12.508769 -0.658067
						CHANNELS 3 Xrotation Yrotation Zrotation
						JOINT Neck_virtual
						{
							OFFSET 0.000000 0.000000 0.000000
							CHANNELS 3 Xrotation Yrotation Zrotation
							JOINT Neck
							{
								OFFSET 0.000000 14.033295 7.520400
								CHANNELS 3 Xrotation Yrotation Zrotation
								JOINT Head
								{
									OFFSET 0.000000 8.198502 5.703100
									CHANNELS 3 Xrotation Yrotation Zrotation
									JOINT HeadTop_End
									{
										OFFSET 0.000000 17.760803 13.332701
										CHANNELS 3 Xrotation Yrotation Zrotation
										End Site
										{
											OFFSET 0 0 0
										}
									}
								}
							}
						}
						JOINT LeftShoulder_virtual
						{
							OFFSET 0.000000 0.000000 0.000000
							CHANNELS 3 Xrotation Yrotation Zrotation
							JOINT LeftShoulder
							{
								OFFSET 6.292450 5.785301 -0.669000
								CHANNELS 3 Xrotation Yrotation Zrotation
								JOINT LeftShoulder_split
								{
									OFFSET 6.292450 5.785301 -0.669000
									CHANNELS 3 Xrotation Yrotation Zrotation
									JOINT LeftArm
									{
										OFFSET 13.907140 -6.093903 1.965100
										CHANNELS 3 Xrotation Yrotation Zrotation
										JOINT LeftForeArm
										{
											OFFSET 34.140198 0.000000 0.000000
											CHANNELS 3 Xrotation Yrotation Zrotation
											JOINT LeftHand
											{
												OFFSET 40.960209 0.000000 0.000000
												CHANNELS 3 Xrotation Yrotation Zrotation
												End Site
												{
													OFFSET 0 0 0
												}
											}
										}
									}
								}
							}
						}
						JOINT RightShoulder_virtual
						{
							OFFSET 0.000000 0.000000 0.000000
							CHANNELS 3 Xrotation Yrotation Zrotation
							JOINT RightShoulder
							{
								OFFSET -6.292450 5.785301 -0.669000
								CHANNELS 3 Xrotation Yrotation Zrotation
								JOINT RightShoulder_split
								{
									OFFSET -6.292450 5.785301 -0.669000
									CHANNELS 3 Xrotation Yrotation Zrotation
									JOINT RightArm
									{
										OFFSET -13.907140 -6.093903 1.965100
										CHANNELS 3 Xrotation Yrotation Zrotation
										JOINT RightForeArm
										{
											OFFSET -34.140198 0.000000 0.000000
											CHANNELS 3 Xrotation Yrotation Zrotation
											JOINT RightHand
											{
												OFFSET -40.960209 0.000000 0.000000
												CHANNELS 3 Xrotation Yrotation Zrotation
												End Site
												{
													OFFSET 0 0 0
												}
											}
										}
									}
								}
							}
						}
					}
				}
			}
		}
	}
}
MOTION
Frames: 9
Frame Time: 0.03333333
5.103616 174.749634 -7.673130 0.000000 0.000000 0.000000 5.023067 27.731507 -0.869650 -48.879153 -3.333312 -1.961562 57.271645 10.720285 -0.164125 20.578315 4.974751 -13.345042 0.627154 2.605907 2.417427 0.000000 0.000000 0.000000 7.198213 28.659798 -1.505258 -29.048829 -10.296438 -15.504231 49.183926 10.955746 3.123812 6.255212 -19.620611 16.216338 -9.047978 5.050958 -0.400389 0.000000 0.000000 0.000000 5.615405 27.419649 -0.612729 -3.156600 0.439285 14.471788 -4.197074 4.716982 -1.228707 0.080705 -0.708623 -0.037395 0.000000 0.000000 0.000000 5.208426 6.717136 0.107107 -13.745752 28.097021 -9.645306 -93.095902 -54.300653 -75.173738 0.000000 0.000000 0.000000 -2.912568 5.359494 -1.541255 14.916872 -8.200431 37.997083 12.538470 3.965550 2.047267 -66.891191 -23.832343 9.082494 -33.795247 -16.480608 1.775153 0.000000 0.000000 0.000000 -1.538454 4.618848 1.200522 -6.168526 -19.441252 -41.312116 1.976079 3.612151 -4.936632 -75.734483 23.029508 -7.031976 -48.752716 27.634647 36.585140 0.000000 0.000000 0.000000 
4.994563 175.461761 -11.087292 0.000000 0.000000 0.000000 4.570410 25.640877 -0.479770 -49.202791 -4.112806 -2.810369 58.706815 9.551794 0.231729 20.687895 3.000800 -15.281408 0.561330 2.367149 3.009036 0.000000 0.000000 0.000000 7.237205 26.894440 -1.230228 -27.899398 -10.667676 -14.508594 53.576656 11.753504 2.633910 7.380563 -19.942428 14.614450 -10.122334 5.058909 0.391464 0.000000 0.000000 0.000000 6.324099 26.468110 -0.479184 -3.535996 0.348940 14.230807 -4.289099 4.735467 -1.256057 0.058147 -0.621946 -0.115154 0.000000 0.000000 0.000000 5.310881 6.681212 -0.004191 -14.241491 27.162153 -8.532412 -92.468187 -55.104638 -74.664008 0.000000 0.000000 0.000000 -2.921962 5.288374 -1.420495 14.830815 -8.357863 38.977666 10.833032 4.368039 1.046911 -68.863852 -26.229501 7.333329 -32.291092 -16.641469 3.319466 0.000000 0.000000 0.000000 -1.106386 4.620232 1.260531 -6.617393 -19.391148 -41.994366 3.634844 2.336839 -4.942631 -79.121984 21.020778 -4.582633 -51.241585 28.969909 38.025777 0.000000 0.000000 0.000000 
4.976741 177.332581 -15.852345 0.000000 0.000000 0.000000 3.593992 21.346252 0.033236 -48.717018 -4.881259 -4.374951 59.998383 7.961783 0.625125 19.213525 1.150115 -15.783655 0.073087 2.005057 3.292654 0.000000 0.000000 0.000000 6.789232 22.616684 -0.729478 -24.105638 -10.501236 -12.879419 53.645651 12.426965 2.014752 10.971251 -19.606143 14.610751 -16.411915 4.680591 1.760983 0.000000 0.000000 0.000000 6.691817 23.794146 -0.434747 -3.324879 0.952011 13.469723 -4.123862 4.882973 -0.870605 0.076436 -0.460368 -0.202693 0.000000 0.000000 0.000000 5.278537 6.869252 0.313430 -15.649577 25.672398 -6.295302 -91.562121 -56.678511 -74.368862 0.000000 0.000000 0.000000 -2.917306 5.313100 -0.928724 14.419392 -6.699460 40.050846 9.178639 4.927565 -0.921486 -75.296729 -26.480701 3.487630 -32.815664 -19.109003 4.271794 0.000000 0.000000 0.000000 -0.793597 4.794456 1.746303 -7.218666 -19.368301 -42.987168 4.529213 1.420726 -4.641815 -82.641498 18.894851 -0.911674 -52.426712 28.395147 37.479287 0.000000 0.000000 0.000000 
4.661948 179.944260 -20.522800 0.000000 0.000000 0.000000 2.729056 15.605229 0.464347 -47.783621 -5.246492 -5.818307 60.428241 6.894756 0.558372 16.414524 0.442672 -13.845071 1.313310 1.657426 2.583517 0.000000 0.000000 0.000000 5.821178 15.391191 -0.093204 -18.840699 -9.928354 -11.237636 48.125048 12.962816 1.393826 14.299384 -18.905147 14.950924 -23.438984 3.994228 3.041036 0.000000 0.000000 0.000000 6.760142 18.633364 -0.533170 -2.559787 2.219891 12.452141 -3.695229 5.206517 -0.169190 0.084678 -0.274704 -0.268100 0.000000 0.000000 0.000000 4.928697 7.350651 0.945015 -17.668931 23.734161 -3.351173 -90.283824 -58.557520 -74.215203 0.000000 0.000000 0.000000 -2.691333 5.531304 -0.183866 13.754935 -3.603439 40.936039 8.090863 4.616727 -2.267018 -82.652597 -23.884429 -0.165718 -35.178322 -23.218139 4.480116 0.000000 0.000000 0.000000 -0.589849 5.253641 2.475580 -7.800409 -19.141241 -44.256569 4.077017 1.801079 -4.462241 -85.204267 17.254791 3.370376 -52.137221 26.226779 35.073011 0.000000 0.000000 0.000000 
4.346000 182.883728 -24.855198 0.000000 0.000000 0.000000 2.275537 8.427185 0.745873 -46.713323 -5.078138 -6.611285 58.768437 6.468935 0.009162 13.438203 1.129348 -9.861990 4.696394 1.356445 0.868832 0.000000 0.000000 0.000000 5.053430 5.998966 0.492898 -13.559766 -9.265089 -10.356608 38.625123 13.498628 0.830813 16.059592 -17.974949 14.446945 -25.054573 3.638653 3.564271 0.000000 0.000000 0.000000 6.604825 11.197101 -0.707340 -1.434743 4.058147 11.366756 -3.082124 5.723028 0.730440 0.146132 -0.232252 -0.263766 0.000000 0.000000 0.000000 4.310771 8.084501 1.740613 -19.676766 21.584748 -0.153186 -88.240430 -60.321116 -73.959037 0.000000 0.000000 0.000000 -2.150524 6.021255 0.655158 12.976290 0.474454 41.419524 7.681275 3.334624 -2.392368 -88.163836 -19.477765 -2.074732 -38.763567 -27.333121 4.139444 0.000000 0.000000 0.000000 -0.472263 6.030832 3.249526 -8.337606 -18.446065 -45.871472 2.814092 3.566709 -4.164846 -86.102273 16.452536 7.608467 -50.851960 23.333646 31.566409 0.000000 0.000000 0.000000 
3.963903 185.792999 -29.153851 0.000000 0.000000 0.000000 2.128850 -0.409701 0.951970 -45.144036 -4.816892 -6.486185 54.441539 6.171971 -0.693507 11.549467 2.734951 -4.981884 7.690215 1.048417 -0.841452 0.000000 0.000000 0.000000 4.400262 -4.226308 1.011237 -10.076169 -9.272606 -10.648866 27.895906 13.670660 0.689468 17.917251 -17.086357 13.593044 -20.201300 3.973611 2.982816 0.000000 0.000000 0.000000 6.360290 2.137879 -0.944030 -0.155808 6.334403 10.320599 -2.374300 6.414853 1.619780 0.280207 -0.278407 -0.158728 0.000000 0.000000 0.000000 3.599146 8.985731 2.518416 -21.120012 19.505063 2.877630 -84.731543 -61.499440 -72.960176 0.000000 0.000000 0.000000 -1.383191 6.770320 1.344093 12.379926 4.638556 41.242284 7.247737 1.698664 -1.187642 -90.336533 -14.360572 -1.633111 -42.554947 -30.047457 3.764200 0.000000 0.000000 0.000000 -0.287052 7.074173 3.850012 -8.636534 -16.999267 -47.607525 1.207849 5.214784 -3.738851 -85.428345 16.506452 11.309974 -49.235244 20.727763 27.835898 0.000000 0.000000 0.000000 
3.220472 187.923309 -33.149822 0.000000 0.000000 0.000000 2.225702 -11.155891 1.306157 -42.827318 -4.638335 -5.435115 48.059380 5.613879 -1.246646 11.354088 4.859758 -0.733432 8.953536 0.782041 -2.130593 0.000000 0.000000 0.000000 4.030776 -14.524242 1.366530 -9.582716 -10.175166 -12.195599 18.969966 13.642733 0.863092 21.415005 -15.820779 14.744833 -13.085737 4.724078 0.837614 0.000000 0.000000 0.000000 6.072938 -8.137219 -1.009665 0.970702 8.811211 9.382180 -1.656538 7.232682 2.280648 0.395421 -0.335011 -0.042821 0.000000 0.000000 0.000000 2.978130 9.899487 3.103698 -21.424676 17.880788 5.427101 -79.286052 -62.188401 -70.953323 0.000000 0.000000 0.000000 -0.566225 7.680558 1.725572 12.193829 8.083718 40.680989 6.653285 0.975730 0.663293 -90.064131 -9.837360 -0.007158 -46.153634 -30.935020 3.710531 0.000000 0.000000 0.000000 0.033171 8.262029 4.119168 -8.558993 -14.881743 -49.193041 -0.448918 6.006091 -3.368050 -83.815574 17.016955 14.445205 -47.585460 19.226269 24.384583 0.000000 0.000000 0.000000 
2.415184 188.486481 -36.675884 0.000000 0.000000 0.000000 2.343587 -22.167633 1.712465 -39.544046 -4.288948 -3.591122 40.999378 4.583076 -1.505930 12.593772 7.095690 1.766141 8.799863 0.585212 -3.004767 0.000000 0.000000 0.000000 3.953470 -24.335488 1.626379 -11.866077 -11.080252 -14.494961 13.214783 13.764619 1.037366 25.944074 -13.705893 18.567675 -7.658839 5.472208 -2.679802 0.000000 0.000000 0.000000 5.685058 -18.595878 -0.626707 1.750902 11.218096 8.484697 -0.863778 8.082702 2.562616 0.375223 -0.487201 -0.024146 0.000000 0.000000 0.000000 2.631387 10.723885 3.379753 -20.304800 16.893882 7.393510 -71.565855 -62.540818 -67.564750 0.000000 0.000000 0.000000 0.109334 8.642216 1.775386 12.494953 10.385063 39.920878 5.761612 2.073342 2.373546 -89.495743 -7.484144 0.619934 -48.973723 -30.394321 4.090237 0.000000 0.000000 0.000000 0.480988 9.365067 4.004413 -7.919590 -12.057446 -50.428793 -1.725064 4.675387 -2.792297 -82.298664 17.261196 17.053681 -45.957157 19.054495 21.371269 0.000000 0.000000 0.000000 
1.695408 186.967712 -39.849895 0.000000 0.000000 0.000000 2.269635 -31.894839 1.987843 -35.472745 -3.404528 -1.102297 34.487951 3.211994 -1.518451 14.291730 8.675821 2.540121 8.325572 0.372761 -3.482777 0.000000 0.000000 0.000000 3.901523 -33.431122 1.889787 -15.497245 -10.966013 -16.387108 9.880305 13.327006 1.057284 29.059757 -12.101404 22.381920 -4.672992 6.053276 -6.492448 0.000000 0.000000 0.000000 5.171662 -28.596003 0.259912 2.087410 13.194210 7.534160 0.051986 8.876993 2.410170 0.279302 -0.593708 -0.037455 0.000000 0.000000 0.000000 2.655968 11.371522 3.289997 -17.851461 16.508588 8.858046 -61.789115 -62.854338 -62.585542 0.000000 0.000000 0.000000 0.522611 9.518808 1.488566 13.145307 11.487680 38.729816 4.801319 3.505605 3.269691 -90.250527 -7.474594 -0.990424 -50.741110 -30.061814 4.288842 0.000000 0.000000 0.000000 1.036281 10.202318 3.575134 -6.589752 -8.659164 -51.103793 -1.995473 1.312669 -2.014222 -82.529251 16.807403 19.589160 -44.436835 20.118899 18.811661 0.000000 0.000000 0.000000 
